<svg width="516" height="149" viewBox="0 0 516 149" fill="none" xmlns="http://www.w3.org/2000/svg">
<path d="M34.0154 104.844C34.4529 102.906 35.2029 100.75 36.2654 98.375C37.3904 96 38.6091 93.6562 39.9216 91.3438C41.2341 89.0312 42.5154 86.8438 43.7654 84.7812C45.0154 82.6562 46.0154 80.875 46.7654 79.4375C47.1404 78.6875 47.7029 77.5625 48.4529 76.0625C49.2654 74.5 50.1404 72.75 51.0779 70.8125C52.0779 68.8125 53.1091 66.75 54.1716 64.625C55.2966 62.5 56.3279 60.4688 57.2654 58.5312C58.2654 56.5312 59.1404 54.7812 59.8904 53.2812C60.7029 51.7188 61.2966 50.5625 61.6716 49.8125C63.6091 47.8125 65.2029 47.25 66.4529 48.125C67.7654 49 68.9216 50.7812 69.9216 53.4688C70.9216 56.1562 71.8279 59.4688 72.6404 63.4062C73.4529 67.3438 74.3279 71.375 75.2654 75.5C76.2029 79.625 77.2654 83.5625 78.4529 87.3125C79.6404 91.0625 81.0779 94.0938 82.7654 96.4062C83.5779 96.7812 84.5466 96.375 85.6716 95.1875C86.8591 94 88.1404 92.2812 89.5154 90.0312C90.8904 87.7188 92.3279 85.0312 93.8279 81.9688C95.3279 78.9062 96.8279 75.6875 98.3279 72.3125C99.8904 68.9375 101.39 65.5312 102.828 62.0938C104.265 58.6562 105.609 55.5 106.859 52.625C108.109 49.6875 109.172 47.125 110.047 44.9375C110.984 42.75 111.703 41.2188 112.203 40.3438C112.64 39.5312 113.078 39.1562 113.515 39.2188C114.015 39.2188 114.422 39.4688 114.734 39.9688C115.047 40.4062 115.265 41 115.39 41.75C115.578 42.4375 115.578 43.0625 115.39 43.625C113.39 49.0625 111.515 53.9688 109.765 58.3438C108.015 62.7188 106.203 66.9375 104.328 71C102.515 75.0625 100.547 79.2188 98.4216 83.4688C96.3591 87.6562 93.9841 92.3125 91.2966 97.4375C89.2966 99.875 87.3591 101.25 85.4841 101.562C83.6091 101.812 81.6716 100.438 79.6716 97.4375C77.6091 93.8125 75.9841 90.375 74.7966 87.125C73.6091 83.875 72.5779 80.6875 71.7029 77.5625C70.8904 74.375 70.1404 71.1562 69.4529 67.9062C68.7654 64.5938 67.9216 61.0312 66.9216 57.2188C66.3591 56.8438 65.4216 57.5 64.1091 59.1875C62.7966 60.875 61.2654 63.125 59.5154 65.9375C57.8279 68.75 56.0466 71.9062 54.1716 75.4062C52.2966 78.9062 50.5154 82.2812 48.8279 85.5312C47.1404 88.7812 45.6404 91.6875 44.3279 94.25C43.0154 96.8125 42.0779 98.5938 41.5154 99.5938C41.2029 100.156 40.7966 100.844 40.2966 101.656C39.8591 102.469 39.3904 103.281 38.8904 104.094C38.4529 104.906 38.0466 105.594 37.6716 106.156C37.3591 106.719 37.2029 107 37.2029 107H34.0154C33.9529 106.875 33.9216 106.531 33.9216 105.969C33.9216 105.406 33.9529 105.031 34.0154 104.844ZM142.109 105.969C140.859 105.031 139.89 103.812 139.203 102.312C138.515 100.812 137.984 99.2188 137.609 97.5312C137.297 95.8438 137.078 94.1562 136.953 92.4688C136.828 90.7812 136.765 89.2812 136.765 87.9688C136.64 87.8438 136.453 87.7812 136.203 87.7812C136.015 87.7812 135.859 87.8438 135.734 87.9688C134.172 89.0938 132.672 90.4375 131.234 92C129.797 93.5625 128.359 95.1562 126.922 96.7812C125.547 98.4062 124.172 100.031 122.797 101.656C121.484 103.219 120.14 104.656 118.765 105.969C117.89 106.281 116.984 106.375 116.047 106.25C115.109 106.062 114.297 105.75 113.609 105.312C112.984 104.812 112.515 104.188 112.203 103.438C111.953 102.625 112.047 101.688 112.484 100.625C113.672 96.8125 114.953 92.7812 116.328 88.5312C117.765 84.2188 119.265 80.125 120.828 76.25C121.39 74.875 121.984 74.125 122.609 74C123.297 73.875 123.89 74.125 124.39 74.75C124.89 75.375 125.234 76.25 125.422 77.375C125.609 78.4375 125.515 79.5 125.14 80.5625C124.953 81.0625 124.609 81.9688 124.109 83.2812C123.609 84.5312 123.078 85.9062 122.515 87.4062C121.953 88.8438 121.422 90.2188 120.922 91.5312C120.422 92.8438 120.078 93.75 119.89 94.25V97.4375C121.828 95.6875 123.453 94.125 124.765 92.75C126.078 91.375 127.297 90 128.422 88.625C129.609 87.1875 130.828 85.6875 132.078 84.125C133.328 82.5 134.89 80.5938 136.765 78.4062C138.203 76.7188 139.328 75.8125 140.14 75.6875C140.953 75.5 141.547 75.8438 141.922 76.7188C142.359 77.5312 142.609 78.75 142.672 80.375C142.734 81.9375 142.734 83.6562 142.672 85.5312C142.672 87.3438 142.609 89.1875 142.484 91.0625C142.359 92.875 142.297 94.4688 142.297 95.8438C142.359 97.1562 142.515 98.125 142.765 98.75C143.015 99.3125 143.484 99.25 144.172 98.5625C144.922 97.375 146.015 95.6562 147.453 93.4062C148.89 91.1562 150.515 88.6875 152.328 86C154.14 83.25 156.109 80.5 158.234 77.75C160.422 74.9375 162.64 72.4375 164.89 70.25C167.14 68 169.39 66.25 171.64 65C173.89 63.6875 176.047 63.1875 178.109 63.5C178.172 63.75 177.797 64.4375 176.984 65.5625C176.234 66.6875 175.203 68.0312 173.89 69.5938C172.64 71.0938 171.234 72.75 169.672 74.5625C168.172 76.3125 166.672 78 165.172 79.625C163.734 81.25 162.453 82.7188 161.328 84.0312C160.203 85.3438 159.422 86.3125 158.984 86.9375C158.797 87.1875 158.39 87.75 157.765 88.625C157.203 89.4375 156.515 90.4375 155.703 91.625C154.953 92.75 154.109 93.9688 153.172 95.2812C152.297 96.5938 151.453 97.8438 150.64 99.0312C149.828 100.219 149.109 101.25 148.484 102.125C147.922 103 147.547 103.562 147.359 103.812C146.797 104.625 146.328 105.281 145.953 105.781C145.578 106.281 145.203 106.625 144.828 106.812C144.515 107 144.14 107.031 143.703 106.906C143.265 106.781 142.734 106.469 142.109 105.969ZM168.078 133.438C166.14 132.75 164.578 131.719 163.39 130.344C162.14 128.969 161.203 127.469 160.578 125.844C159.89 124.281 159.484 122.688 159.359 121.062C159.172 119.438 159.203 118 159.453 116.75C159.64 115.5 160.015 114.531 160.578 113.844C161.078 113.219 161.672 113.062 162.359 113.375C162.297 118.812 162.953 122.906 164.328 125.656C165.64 128.469 167.39 130.219 169.578 130.906C171.703 131.656 174.14 131.5 176.89 130.438C179.578 129.375 182.297 127.719 185.047 125.469C187.859 123.281 190.515 120.625 193.015 117.5C195.578 114.438 197.734 111.219 199.484 107.844C201.234 104.531 202.484 101.25 203.234 98C203.984 94.6875 203.953 91.6875 203.14 89C197.515 93.0625 193.14 95.625 190.015 96.6875C186.89 97.75 184.703 97.8125 183.453 96.875C182.265 95.875 181.89 94.125 182.328 91.625C182.765 89.125 183.703 86.375 185.14 83.375C186.578 80.375 188.39 77.375 190.578 74.375C192.765 71.3125 195.015 68.75 197.328 66.6875C199.64 64.625 201.859 63.3125 203.984 62.75C206.172 62.1875 207.984 62.8438 209.422 64.7188C210.859 66.6562 211.765 69.2812 212.14 72.5938C212.515 75.8438 212.422 79.4688 211.859 83.4688C211.297 87.4688 210.297 91.6562 208.859 96.0312C207.484 100.406 205.765 104.656 203.703 108.781C201.64 112.969 199.265 116.844 196.578 120.406C193.953 123.969 191.109 126.938 188.047 129.312C184.984 131.688 181.765 133.281 178.39 134.094C175.015 134.969 171.578 134.75 168.078 133.438ZM187.203 86.9375C187.14 87.125 187.078 87.4688 187.015 87.9688C187.015 88.4688 187.015 89 187.015 89.5625C187.015 90.125 187.015 90.6562 187.015 91.1562C187.078 91.6562 187.14 92 187.203 92.1875C189.203 92.6875 191.265 92.2188 193.39 90.7812C195.515 89.3438 197.453 87.5 199.203 85.25C201.015 83 202.515 80.625 203.703 78.125C204.953 75.625 205.703 73.5312 205.953 71.8438C206.265 70.1562 205.953 69.2188 205.015 69.0312C204.078 68.7812 202.359 69.7812 199.859 72.0312C199.109 72.7188 198.109 73.6562 196.859 74.8438C195.609 76.0312 194.328 77.3125 193.015 78.6875C191.765 80.0625 190.578 81.5 189.453 83C188.39 84.4375 187.64 85.75 187.203 86.9375Z" fill="white"/>
<path d="M269.789 47.6C270.269 48.0267 270.695 48.6933 271.069 49.6C269.949 51.5733 269.015 53.9733 268.269 56.8L267.949 58.16C266.882 58.64 265.575 58.88 264.029 58.88C264.509 56.7467 264.749 55.1467 264.749 54.08C264.749 53.0133 264.349 52.32 263.549 52H244.109C243.095 60.7467 242.402 67.5467 242.029 72.4H259.949C260.802 71.12 261.442 69.68 261.869 68.08C262.242 67.92 262.775 67.84 263.469 67.84L265.229 68.16C264.109 71.68 263.282 76.1867 262.749 81.68C262.322 81.8933 261.789 82 261.149 82L259.789 81.76C259.789 79.6267 259.575 77.84 259.149 76.4H241.789C241.309 82.9067 240.909 89.84 240.589 97.2H261.309C262.322 95.7067 263.069 94 263.549 92.08L263.789 91.04C265.442 91.36 266.562 91.92 267.149 92.72L267.469 93.2C266.402 95.8667 265.709 98.8 265.389 102H235.389L227.789 102.56C227.789 101.333 228.055 100.187 228.589 99.12C230.509 98.5333 232.215 97.6533 233.709 96.48C235.095 84.5867 236.295 69.7333 237.309 51.92L231.309 50.48C231.309 49.2533 231.575 48.1067 232.109 47.04C235.522 47.4133 238.295 47.6 240.429 47.6H269.789ZM277.166 69.2C277.166 67.9733 277.433 66.8267 277.966 65.76C281.006 65.3333 283.966 64.48 286.846 63.2C287.593 63.2 288.259 63.5467 288.846 64.24C289.433 64.88 289.726 65.7333 289.726 66.8L288.206 78.24L289.006 78.72C290.659 74.9333 293.113 71.4667 296.366 68.32C299.619 65.1733 303.299 63.6 307.406 63.6C309.379 63.6 310.953 63.8667 312.126 64.4C313.299 64.9333 313.993 65.4667 314.206 66L314.446 66.8C313.219 77.0933 312.393 87.2267 311.966 97.2H318.366C318.366 98.4267 318.099 99.5733 317.566 100.64C313.993 101.067 310.766 101.92 307.886 103.2C307.086 103.2 306.393 102.907 305.806 102.32C305.273 101.733 305.006 100.827 305.006 99.6C306.179 92.1333 307.193 82 308.046 69.2H303.166C301.033 69.2 298.499 70.88 295.566 74.24C292.633 77.5467 290.259 81.2 288.446 85.2C287.913 91.8133 287.299 97.4133 286.606 102C283.993 102.8 281.486 103.2 279.086 103.2C279.939 99.6267 280.686 95.44 281.326 90.64C281.966 85.84 282.526 78.6933 283.006 69.2H277.166ZM323.027 119.36C323.027 118.08 323.267 116.96 323.747 116H341.987C344.387 114.827 346.493 111.067 348.307 104.72C349.48 100.72 350.333 95.2 350.867 88.16L350.147 87.76C348.173 92.56 346.173 96.2667 344.147 98.88C342.12 101.493 339.453 102.8 336.147 102.8C332.84 102.8 330.067 101.6 327.827 99.2C325.587 96.7467 324.467 93.44 324.467 89.28C324.467 82.4 326.52 76.4 330.627 71.28C334.733 66.16 339.827 63.6 345.907 63.6C347.933 63.6 350.147 64.3467 352.547 65.84L352.867 63.6C355.533 62.8 358.067 62.4 360.467 62.4C359.453 66.5067 358.787 69.7067 358.467 72C358.147 74.24 357.773 77.3067 357.347 81.2C356.973 85.0933 356.653 88.32 356.387 90.88C356.12 93.3867 355.747 96.2133 355.267 99.36C354.787 102.453 354.253 104.96 353.667 106.88C353.08 108.853 352.253 110.853 351.187 112.88C350.12 114.96 348.893 116.56 347.507 117.68C344.307 120.293 340.12 121.6 334.947 121.6C332.76 121.6 329.507 121.04 325.187 119.92L323.027 119.36ZM330.547 87.04C330.547 89.3867 331.08 91.52 332.147 93.44C333.213 95.3067 334.413 96.56 335.747 97.2H339.587C342.733 96.6133 346.467 91.0933 350.787 80.64C351 78.1333 351.427 74.32 352.067 69.2H339.347C337.267 69.5733 335.267 71.6533 333.347 75.44C331.48 79.1733 330.547 83.04 330.547 87.04ZM367.618 44.8C367.618 43.5733 367.885 42.4267 368.418 41.36C371.458 40.9333 374.418 40.08 377.298 38.8C378.045 38.8 378.711 39.1467 379.298 39.84C379.885 40.48 380.178 41.3333 380.178 42.4C379.165 50.9333 377.565 69.2 375.378 97.2H381.618C381.618 98.4267 381.351 99.5733 380.818 100.64C377.245 101.067 374.018 101.92 371.138 103.2C370.338 103.2 369.645 102.907 369.058 102.32C368.525 101.733 368.258 100.827 368.258 99.6C371.085 75.8667 372.925 57.6 373.778 44.8H367.618ZM388.062 69.2C388.062 67.9733 388.329 66.8267 388.862 65.76C391.902 65.3333 394.862 64.48 397.742 63.2C398.489 63.2 399.156 63.5467 399.742 64.24C400.329 64.88 400.622 65.7333 400.622 66.8C399.396 77.2 398.569 87.3333 398.142 97.2H404.542C404.542 98.4267 404.276 99.5733 403.742 100.64C400.169 101.067 396.942 101.92 394.062 103.2C393.262 103.2 392.569 102.907 391.982 102.32C391.449 101.733 391.182 100.827 391.182 99.6C392.356 92.1333 393.369 82 394.222 69.2H388.062ZM394.382 50.32C394.649 49.52 395.289 48.88 396.302 48.4C397.316 47.8667 398.356 47.6 399.422 47.6C400.489 47.6 401.316 47.84 401.902 48.32C402.542 48.8 402.862 49.3333 402.862 49.92L402.462 52.8C401.876 54.4 400.169 55.2 397.342 55.2C396.276 55.2 395.449 54.96 394.862 54.48C394.329 54 394.062 53.44 394.062 52.8L394.382 50.32ZM433.591 92.24C433.591 91.2267 433.324 90.4267 432.791 89.84C432.258 89.2 431.831 88.7467 431.511 88.48C431.244 88.16 430.764 87.7867 430.071 87.36C429.378 86.88 428.898 86.56 428.631 86.4C427.298 85.6 425.991 84.88 424.711 84.24C423.484 83.5467 422.524 82.9867 421.831 82.56C421.191 82.1333 420.364 81.4933 419.351 80.64C417.538 79.0933 416.631 77.0933 416.631 74.64C416.631 71.0667 417.964 68.3467 420.631 66.48C423.351 64.56 426.658 63.6 430.551 63.6C434.444 63.6 437.991 64.6667 441.191 66.8C439.964 69.0933 439.031 71.5467 438.391 74.16L438.071 75.36C437.004 75.84 435.698 76.08 434.151 76.08C434.631 73.8933 434.871 72.5067 434.871 71.92C434.871 70.2133 434.284 69.1733 433.111 68.8H425.351C422.791 69.1733 421.511 70.6667 421.511 73.28C421.511 74.1867 421.964 75.12 422.871 76.08C423.778 76.9867 424.684 77.7333 425.591 78.32C426.498 78.8533 427.778 79.5467 429.431 80.4C431.138 81.2533 432.551 82.0533 433.671 82.8C434.791 83.4933 435.911 84.5067 437.031 85.84C438.204 87.12 438.791 88.4267 438.791 89.76C438.791 93.92 437.431 97.1467 434.711 99.44C431.991 101.68 428.311 102.8 423.671 102.8C420.844 102.8 418.418 102.373 416.391 101.52C414.418 100.613 413.138 99.7333 412.551 98.88L411.671 97.6C412.844 95.5733 413.698 93.3867 414.231 91.04L414.471 90C415.538 89.52 416.844 89.28 418.391 89.28C417.911 91.04 417.671 92.56 417.671 93.84C417.671 95.7067 419.191 96.96 422.231 97.6H430.551C432.578 96.4267 433.591 94.64 433.591 92.24ZM449.279 44.8C449.279 43.5733 449.546 42.4267 450.079 41.36C453.119 40.9333 456.079 40.08 458.959 38.8C459.706 38.8 460.372 39.1467 460.959 39.84C461.546 40.48 461.839 41.3333 461.839 42.4L458.239 78.24L459.039 78.72C460.692 74.9333 463.146 71.4667 466.399 68.32C469.652 65.1733 473.332 63.6 477.439 63.6C479.412 63.6 480.986 63.8667 482.159 64.4C483.332 64.9333 484.026 65.4667 484.239 66L484.479 66.8C483.092 78.5867 482.266 88.72 481.999 97.2H488.399C488.399 98.4267 488.132 99.5733 487.599 100.64C484.026 101.067 480.799 101.92 477.919 103.2C477.119 103.2 476.426 102.907 475.839 102.32C475.306 101.733 475.039 100.827 475.039 99.6C476.212 92.1333 477.226 82 478.079 69.2H473.199C471.066 69.2 468.532 70.88 465.599 74.24C462.666 77.5467 460.292 81.2 458.479 85.2C457.946 91.8133 457.332 97.4133 456.639 102C454.026 102.8 451.519 103.2 449.119 103.2C449.972 99.6267 450.506 97.0133 450.719 95.36C451.732 88 453.199 71.1467 455.119 44.8H449.279Z" fill="#EC1800"/>
</svg>
