<svg width="184" height="56" viewBox="0 0 184 56" fill="none" xmlns="http://www.w3.org/2000/svg">
<path d="M14.5781 36.1016C14.7604 35.2943 15.0729 34.3958 15.5156 33.4062C15.9844 32.4167 16.4922 31.4401 17.0391 30.4766C17.5859 29.513 18.1198 28.6016 18.6406 27.7422C19.1615 26.8568 19.5781 26.1146 19.8906 25.5156C20.0469 25.2031 20.2812 24.7344 20.5938 24.1094C20.9323 23.4583 21.2969 22.7292 21.6875 21.9219C22.1042 21.0885 22.5339 20.2292 22.9766 19.3438C23.4453 18.4583 23.875 17.612 24.2656 16.8047C24.6823 15.9714 25.0469 15.2422 25.3594 14.6172C25.6979 13.9661 25.9453 13.4844 26.1016 13.1719C26.9089 12.3385 27.5729 12.1042 28.0938 12.4688C28.6406 12.8333 29.1224 13.5755 29.5391 14.6953C29.9557 15.8151 30.3333 17.1953 30.6719 18.8359C31.0104 20.4766 31.375 22.1562 31.7656 23.875C32.1562 25.5938 32.599 27.2344 33.0938 28.7969C33.5885 30.3594 34.1875 31.6224 34.8906 32.5859C35.2292 32.7422 35.6328 32.5729 36.1016 32.0781C36.5964 31.5833 37.1302 30.8672 37.7031 29.9297C38.276 28.9661 38.875 27.8464 39.5 26.5703C40.125 25.2943 40.75 23.9531 41.375 22.5469C42.026 21.1406 42.651 19.7214 43.25 18.2891C43.849 16.8568 44.4089 15.5417 44.9297 14.3438C45.4505 13.1198 45.8932 12.0521 46.2578 11.1406C46.6484 10.2292 46.9479 9.59115 47.1562 9.22656C47.3385 8.88802 47.5208 8.73177 47.7031 8.75781C47.9115 8.75781 48.0807 8.86198 48.2109 9.07031C48.3411 9.2526 48.4323 9.5 48.4844 9.8125C48.5625 10.099 48.5625 10.3594 48.4844 10.5938C47.651 12.8594 46.8698 14.9036 46.1406 16.7266C45.4115 18.5495 44.6562 20.3073 43.875 22C43.1198 23.6927 42.2995 25.4245 41.4141 27.1953C40.5547 28.9401 39.5651 30.8802 38.4453 33.0156C37.612 34.0312 36.8047 34.6042 36.0234 34.7344C35.2422 34.8385 34.4349 34.2656 33.6016 33.0156C32.7422 31.5052 32.0651 30.0729 31.5703 28.7188C31.0755 27.3646 30.6458 26.0365 30.2812 24.7344C29.9427 23.4062 29.6302 22.0651 29.3438 20.7109C29.0573 19.3307 28.7057 17.8464 28.2891 16.2578C28.0547 16.1016 27.6641 16.375 27.1172 17.0781C26.5703 17.7812 25.9323 18.7188 25.2031 19.8906C24.5 21.0625 23.7578 22.3776 22.9766 23.8359C22.1953 25.2943 21.4531 26.7005 20.75 28.0547C20.0469 29.4089 19.4219 30.6198 18.875 31.6875C18.3281 32.7552 17.9375 33.4974 17.7031 33.9141C17.5729 34.1484 17.4036 34.4349 17.1953 34.7734C17.013 35.112 16.8177 35.4505 16.6094 35.7891C16.4271 36.1276 16.2578 36.4141 16.1016 36.6484C15.9714 36.8828 15.9062 37 15.9062 37H14.5781C14.5521 36.9479 14.5391 36.8047 14.5391 36.5703C14.5391 36.3359 14.5521 36.1797 14.5781 36.1016ZM59.6172 36.5703C59.0964 36.1797 58.6927 35.6719 58.4062 35.0469C58.1198 34.4219 57.8984 33.7578 57.7422 33.0547C57.612 32.3516 57.5208 31.6484 57.4688 30.9453C57.4167 30.2422 57.3906 29.6172 57.3906 29.0703C57.3385 29.0182 57.2604 28.9922 57.1562 28.9922C57.0781 28.9922 57.013 29.0182 56.9609 29.0703C56.3099 29.5391 55.6849 30.099 55.0859 30.75C54.487 31.401 53.888 32.0651 53.2891 32.7422C52.7161 33.4193 52.1432 34.0964 51.5703 34.7734C51.0234 35.4245 50.4635 36.0234 49.8906 36.5703C49.526 36.7005 49.1484 36.7396 48.7578 36.6875C48.3672 36.6094 48.0286 36.4792 47.7422 36.2969C47.4818 36.0885 47.2865 35.8281 47.1562 35.5156C47.0521 35.1771 47.0911 34.7865 47.2734 34.3438C47.7682 32.7552 48.3021 31.0755 48.875 29.3047C49.474 27.5078 50.099 25.8021 50.75 24.1875C50.9844 23.6146 51.2318 23.3021 51.4922 23.25C51.7786 23.1979 52.026 23.3021 52.2344 23.5625C52.4427 23.8229 52.5859 24.1875 52.6641 24.6562C52.7422 25.099 52.7031 25.5417 52.5469 25.9844C52.4688 26.1927 52.3255 26.5703 52.1172 27.1172C51.9089 27.638 51.6875 28.2109 51.4531 28.8359C51.2188 29.4349 50.9974 30.0078 50.7891 30.5547C50.5807 31.1016 50.4375 31.4792 50.3594 31.6875V33.0156C51.1667 32.2865 51.8438 31.6354 52.3906 31.0625C52.9375 30.4896 53.4453 29.9167 53.9141 29.3438C54.4089 28.7448 54.9167 28.1198 55.4375 27.4688C55.9583 26.7917 56.6094 25.9974 57.3906 25.0859C57.9896 24.3828 58.4583 24.0052 58.7969 23.9531C59.1354 23.875 59.3828 24.0182 59.5391 24.3828C59.7214 24.7214 59.8255 25.2292 59.8516 25.9062C59.8776 26.5573 59.8776 27.2734 59.8516 28.0547C59.8516 28.8099 59.8255 29.5781 59.7734 30.3594C59.7214 31.1146 59.6953 31.7786 59.6953 32.3516C59.7214 32.8984 59.7865 33.3021 59.8906 33.5625C59.9948 33.7969 60.1901 33.7708 60.4766 33.4844C60.7891 32.9896 61.2448 32.2734 61.8438 31.3359C62.4427 30.3984 63.1198 29.3698 63.875 28.25C64.6302 27.1042 65.4505 25.9583 66.3359 24.8125C67.2474 23.6406 68.1719 22.599 69.1094 21.6875C70.0469 20.75 70.9844 20.0208 71.9219 19.5C72.8594 18.9531 73.7578 18.7448 74.6172 18.875C74.6432 18.9792 74.487 19.2656 74.1484 19.7344C73.8359 20.2031 73.4062 20.763 72.8594 21.4141C72.3385 22.0391 71.7526 22.7292 71.1016 23.4844C70.4766 24.2135 69.8516 24.9167 69.2266 25.5938C68.6276 26.2708 68.0938 26.8828 67.625 27.4297C67.1562 27.9766 66.8307 28.3802 66.6484 28.6406C66.5703 28.7448 66.401 28.9792 66.1406 29.3438C65.9062 29.6823 65.6198 30.099 65.2812 30.5938C64.9688 31.0625 64.6172 31.5703 64.2266 32.1172C63.862 32.6641 63.5104 33.1849 63.1719 33.6797C62.8333 34.1745 62.5339 34.6042 62.2734 34.9688C62.0391 35.3333 61.8828 35.5677 61.8047 35.6719C61.5703 36.0104 61.375 36.2839 61.2188 36.4922C61.0625 36.7005 60.9062 36.8438 60.75 36.9219C60.6198 37 60.4635 37.013 60.2812 36.9609C60.099 36.9089 59.8776 36.7786 59.6172 36.5703ZM70.4375 48.0156C69.6302 47.7292 68.9792 47.2995 68.4844 46.7266C67.9635 46.1536 67.5729 45.5286 67.3125 44.8516C67.026 44.2005 66.8568 43.5365 66.8047 42.8594C66.7266 42.1823 66.7396 41.5833 66.8438 41.0625C66.9219 40.5417 67.0781 40.138 67.3125 39.8516C67.5208 39.5911 67.7682 39.526 68.0547 39.6562C68.0286 41.9219 68.3021 43.6276 68.875 44.7734C69.4219 45.9453 70.151 46.6745 71.0625 46.9609C71.9479 47.2734 72.9635 47.2083 74.1094 46.7656C75.2292 46.3229 76.362 45.6328 77.5078 44.6953C78.6797 43.7839 79.7865 42.6771 80.8281 41.375C81.8958 40.099 82.7943 38.7578 83.5234 37.3516C84.2526 35.9714 84.7734 34.6042 85.0859 33.25C85.3984 31.8698 85.3854 30.6198 85.0469 29.5C82.7031 31.1927 80.8802 32.2604 79.5781 32.7031C78.276 33.1458 77.3646 33.1719 76.8438 32.7812C76.349 32.3646 76.1927 31.6354 76.375 30.5938C76.5573 29.5521 76.9479 28.4062 77.5469 27.1562C78.1458 25.9062 78.901 24.6562 79.8125 23.4062C80.724 22.1302 81.6615 21.0625 82.625 20.2031C83.5885 19.3438 84.513 18.7969 85.3984 18.5625C86.3099 18.3281 87.0651 18.6016 87.6641 19.3828C88.263 20.1901 88.6406 21.2839 88.7969 22.6641C88.9531 24.0182 88.9141 25.5286 88.6797 27.1953C88.4453 28.862 88.0286 30.6068 87.4297 32.4297C86.8568 34.2526 86.1406 36.0234 85.2812 37.7422C84.4219 39.487 83.4323 41.1016 82.3125 42.5859C81.2188 44.0703 80.0339 45.3073 78.7578 46.2969C77.4818 47.2865 76.1406 47.9505 74.7344 48.2891C73.3281 48.6536 71.8958 48.5625 70.4375 48.0156ZM78.4062 28.6406C78.3802 28.7188 78.3542 28.862 78.3281 29.0703C78.3281 29.2786 78.3281 29.5 78.3281 29.7344C78.3281 29.9688 78.3281 30.1901 78.3281 30.3984C78.3542 30.6068 78.3802 30.75 78.4062 30.8281C79.2396 31.0365 80.099 30.8411 80.9844 30.2422C81.8698 29.6432 82.6771 28.875 83.4062 27.9375C84.1615 27 84.7865 26.0104 85.2812 24.9688C85.8021 23.9271 86.1146 23.0547 86.2188 22.3516C86.349 21.6484 86.2188 21.2578 85.8281 21.1797C85.4375 21.0755 84.7214 21.4922 83.6797 22.4297C83.3672 22.7161 82.9505 23.1068 82.4297 23.6016C81.9089 24.0964 81.375 24.6302 80.8281 25.2031C80.3073 25.776 79.8125 26.375 79.3438 27C78.901 27.599 78.5885 28.1458 78.4062 28.6406Z" fill="white"/>
<path d="M111.044 17.68C111.188 17.808 111.316 18.008 111.428 18.28C111.092 18.872 110.812 19.592 110.588 20.44L110.492 20.848C110.172 20.992 109.78 21.064 109.316 21.064C109.46 20.424 109.532 19.944 109.532 19.624C109.532 19.304 109.412 19.096 109.172 19H103.34C103.036 21.624 102.828 23.664 102.716 25.12H108.092C108.348 24.736 108.54 24.304 108.668 23.824C108.78 23.776 108.94 23.752 109.148 23.752L109.676 23.848C109.34 24.904 109.092 26.256 108.932 27.904C108.804 27.968 108.644 28 108.452 28L108.044 27.928C108.044 27.288 107.98 26.752 107.852 26.32H102.644C102.5 28.272 102.38 30.352 102.284 32.56H108.5C108.804 32.112 109.028 31.6 109.172 31.024L109.244 30.712C109.74 30.808 110.076 30.976 110.252 31.216L110.348 31.36C110.028 32.16 109.82 33.04 109.724 34H100.724L98.4443 34.168C98.4443 33.8 98.5243 33.456 98.6843 33.136C99.2603 32.96 99.7723 32.696 100.22 32.344C100.636 28.776 100.996 24.32 101.3 18.976L99.5003 18.544C99.5003 18.176 99.5803 17.832 99.7402 17.512C100.764 17.624 101.596 17.68 102.236 17.68H111.044ZM113.258 24.16C113.258 23.792 113.338 23.448 113.498 23.128C114.41 23 115.298 22.744 116.162 22.36C116.386 22.36 116.586 22.464 116.762 22.672C116.938 22.864 117.026 23.12 117.026 23.44L116.57 26.872L116.81 27.016C117.306 25.88 118.042 24.84 119.018 23.896C119.994 22.952 121.098 22.48 122.33 22.48C122.922 22.48 123.394 22.56 123.746 22.72C124.098 22.88 124.306 23.04 124.37 23.2L124.442 23.44C124.074 26.528 123.826 29.568 123.698 32.56H125.618C125.618 32.928 125.538 33.272 125.378 33.592C124.306 33.72 123.338 33.976 122.474 34.36C122.234 34.36 122.026 34.272 121.85 34.096C121.69 33.92 121.61 33.648 121.61 33.28C121.962 31.04 122.266 28 122.522 24.16H121.058C120.418 24.16 119.658 24.664 118.778 25.672C117.898 26.664 117.186 27.76 116.642 28.96C116.482 30.944 116.298 32.624 116.09 34C115.306 34.24 114.554 34.36 113.834 34.36C114.09 33.288 114.314 32.032 114.506 30.592C114.698 29.152 114.866 27.008 115.01 24.16H113.258ZM127.016 39.208C127.016 38.824 127.088 38.488 127.232 38.2H132.704C133.424 37.848 134.056 36.72 134.6 34.816C134.952 33.616 135.208 31.96 135.368 29.848L135.152 29.728C134.56 31.168 133.96 32.28 133.352 33.064C132.744 33.848 131.944 34.24 130.952 34.24C129.96 34.24 129.128 33.88 128.456 33.16C127.784 32.424 127.448 31.432 127.448 30.184C127.448 28.12 128.064 26.32 129.296 24.784C130.528 23.248 132.056 22.48 133.88 22.48C134.488 22.48 135.152 22.704 135.872 23.152L135.968 22.48C136.768 22.24 137.528 22.12 138.248 22.12C137.944 23.352 137.744 24.312 137.648 25C137.552 25.672 137.44 26.592 137.312 27.76C137.2 28.928 137.104 29.896 137.024 30.664C136.944 31.416 136.832 32.264 136.688 33.208C136.544 34.136 136.384 34.888 136.208 35.464C136.032 36.056 135.784 36.656 135.464 37.264C135.144 37.888 134.776 38.368 134.36 38.704C133.4 39.488 132.144 39.88 130.592 39.88C129.936 39.88 128.96 39.712 127.664 39.376L127.016 39.208ZM129.272 29.512C129.272 30.216 129.432 30.856 129.752 31.432C130.072 31.992 130.432 32.368 130.832 32.56H131.984C132.928 32.384 134.048 30.728 135.344 27.592C135.408 26.84 135.536 25.696 135.728 24.16H131.912C131.288 24.272 130.688 24.896 130.112 26.032C129.552 27.152 129.272 28.312 129.272 29.512ZM140.393 16.84C140.393 16.472 140.473 16.128 140.633 15.808C141.545 15.68 142.433 15.424 143.297 15.04C143.521 15.04 143.721 15.144 143.897 15.352C144.073 15.544 144.161 15.8 144.161 16.12C143.857 18.68 143.377 24.16 142.721 32.56H144.593C144.593 32.928 144.513 33.272 144.353 33.592C143.281 33.72 142.313 33.976 141.449 34.36C141.209 34.36 141.001 34.272 140.825 34.096C140.665 33.92 140.585 33.648 140.585 33.28C141.433 26.16 141.985 20.68 142.241 16.84H140.393ZM146.526 24.16C146.526 23.792 146.606 23.448 146.766 23.128C147.678 23 148.566 22.744 149.43 22.36C149.654 22.36 149.854 22.464 150.03 22.672C150.206 22.864 150.294 23.12 150.294 23.44C149.926 26.56 149.678 29.6 149.55 32.56H151.47C151.47 32.928 151.39 33.272 151.23 33.592C150.158 33.72 149.19 33.976 148.326 34.36C148.086 34.36 147.878 34.272 147.702 34.096C147.542 33.92 147.462 33.648 147.462 33.28C147.814 31.04 148.118 28 148.374 24.16H146.526ZM148.422 18.496C148.502 18.256 148.694 18.064 148.998 17.92C149.302 17.76 149.614 17.68 149.934 17.68C150.254 17.68 150.502 17.752 150.678 17.896C150.87 18.04 150.966 18.2 150.966 18.376L150.846 19.24C150.67 19.72 150.158 19.96 149.31 19.96C148.99 19.96 148.742 19.888 148.566 19.744C148.406 19.6 148.326 19.432 148.326 19.24L148.422 18.496ZM160.185 31.072C160.185 30.768 160.105 30.528 159.945 30.352C159.785 30.16 159.657 30.024 159.561 29.944C159.481 29.848 159.337 29.736 159.129 29.608C158.921 29.464 158.777 29.368 158.697 29.32C158.297 29.08 157.905 28.864 157.521 28.672C157.153 28.464 156.865 28.296 156.657 28.168C156.465 28.04 156.217 27.848 155.913 27.592C155.369 27.128 155.097 26.528 155.097 25.792C155.097 24.72 155.497 23.904 156.297 23.344C157.113 22.768 158.105 22.48 159.273 22.48C160.441 22.48 161.505 22.8 162.465 23.44C162.097 24.128 161.817 24.864 161.625 25.648L161.529 26.008C161.209 26.152 160.817 26.224 160.353 26.224C160.497 25.568 160.569 25.152 160.569 24.976C160.569 24.464 160.393 24.152 160.041 24.04H157.713C156.945 24.152 156.561 24.6 156.561 25.384C156.561 25.656 156.697 25.936 156.969 26.224C157.241 26.496 157.513 26.72 157.785 26.896C158.057 27.056 158.441 27.264 158.937 27.52C159.449 27.776 159.873 28.016 160.209 28.24C160.545 28.448 160.881 28.752 161.217 29.152C161.569 29.536 161.745 29.928 161.745 30.328C161.745 31.576 161.337 32.544 160.521 33.232C159.705 33.904 158.601 34.24 157.209 34.24C156.361 34.24 155.633 34.112 155.025 33.856C154.433 33.584 154.049 33.32 153.873 33.064L153.609 32.68C153.961 32.072 154.217 31.416 154.377 30.712L154.449 30.4C154.769 30.256 155.161 30.184 155.625 30.184C155.481 30.712 155.409 31.168 155.409 31.552C155.409 32.112 155.865 32.488 156.777 32.68H159.273C159.881 32.328 160.185 31.792 160.185 31.072ZM164.891 16.84C164.891 16.472 164.971 16.128 165.131 15.808C166.043 15.68 166.931 15.424 167.795 15.04C168.019 15.04 168.219 15.144 168.395 15.352C168.571 15.544 168.659 15.8 168.659 16.12L167.579 26.872L167.819 27.016C168.315 25.88 169.051 24.84 170.027 23.896C171.003 22.952 172.107 22.48 173.339 22.48C173.931 22.48 174.403 22.56 174.755 22.72C175.107 22.88 175.315 23.04 175.379 23.2L175.451 23.44C175.035 26.976 174.787 30.016 174.707 32.56H176.627C176.627 32.928 176.547 33.272 176.387 33.592C175.315 33.72 174.347 33.976 173.483 34.36C173.243 34.36 173.035 34.272 172.859 34.096C172.699 33.92 172.619 33.648 172.619 33.28C172.971 31.04 173.275 28 173.531 24.16H172.067C171.427 24.16 170.667 24.664 169.787 25.672C168.907 26.664 168.195 27.76 167.651 28.96C167.491 30.944 167.307 32.624 167.099 34C166.315 34.24 165.563 34.36 164.843 34.36C165.099 33.288 165.259 32.504 165.323 32.008C165.627 29.8 166.067 24.744 166.643 16.84H164.891Z" fill="#EC1800"/>
</svg>
