<svg width="16" height="16" viewBox="0 0 16 16" fill="none" xmlns="http://www.w3.org/2000/svg">
<path d="M8 2.66663C4.57941 2.66663 1.6002 4.81502 0 8.00002C1.6002 11.1856 4.57941 13.3334 8 13.3334C11.4206 13.3334 14.3998 11.1856 16 8.00002C14.3998 4.81502 11.4206 2.66663 8 2.66663ZM8 11.3334C6.15879 11.3334 4.6666 9.84124 4.6666 8.00002C4.6666 6.15881 6.15879 4.66663 8 4.66663C9.84121 4.66663 11.3334 6.15881 11.3334 8.00002C11.3334 9.84124 9.84121 11.3334 8 11.3334Z" fill="#606977"/>
<path d="M8 10C9.10457 10 10 9.10457 10 8C10 6.89543 9.10457 6 8 6C6.89543 6 6 6.89543 6 8C6 9.10457 6.89543 10 8 10Z" fill="#606977"/>
</svg>
