<svg width="16" height="15" viewBox="0 0 16 15" fill="none" xmlns="http://www.w3.org/2000/svg">
<path d="M7.87842 4.73271L10.1688 7.0231L10.1797 6.90312C10.1797 5.69975 9.20176 4.7218 7.99839 4.7218L7.87842 4.73271Z" fill="#606977"/>
<path d="M7.99806 3.26759C10.0049 3.26759 11.6336 4.89632 11.6336 6.90314C11.6336 7.37212 11.5391 7.81929 11.3755 8.2301L13.5023 10.3569C14.6002 9.44073 15.4655 8.25556 15.9999 6.90314C14.7384 3.71114 11.6373 1.44983 7.9981 1.44983C6.98014 1.44983 6.00583 1.63159 5.10059 1.95879L6.67114 3.5257C7.08191 3.36575 7.52908 3.26759 7.99806 3.26759Z" fill="#606977"/>
<path d="M0.727096 1.28619L2.3849 2.944L2.71575 3.27484C1.51602 4.21281 0.567144 5.45981 0 6.9031C1.25791 10.0951 4.36264 12.3564 7.99819 12.3564C9.12522 12.3564 10.2013 12.1383 11.1866 11.742L11.4956 12.051L13.6151 14.1742L14.5422 13.2507L1.65416 0.359131L0.727096 1.28619ZM4.74802 5.30347L5.8714 6.42685C5.83868 6.58319 5.81687 6.7395 5.81687 6.9031C5.81687 8.10647 6.79482 9.08442 7.99819 9.08442C8.16179 9.08442 8.31813 9.06261 8.47082 9.02989L9.59421 10.1533C9.11067 10.3932 8.57263 10.5386 7.99819 10.5386C5.99138 10.5386 4.36264 8.90992 4.36264 6.9031C4.36264 6.32869 4.50808 5.79062 4.74802 5.30347Z" fill="#606977"/>
</svg>
